HIERARCHY
ROOT joint_Root
{
	OFFSET 0.0 0.0 0.0
	CHANNELS 6 Xposition Yposition Zposition Zrotation Xrotation Yrotation 
	JOINT Hips
	{
		OFFSET -0.726466 93.3139 -2.00062
		CHANNELS 6 Xposition Yposition Zposition Zrotation Xrotation Yrotation 
		JOINT Spine
		{
			OFFSET 15.7357 0.0 0.0
			CHANNELS 6 Xposition Yposition Zposition Zrotation Xrotation Yrotation 
			JOINT Chest
			{
				OFFSET 8.98455 -0.406207 0.0
				CHANNELS 6 Xposition Yposition Zposition Zrotation Xrotation Yrotation 
				JOINT Neck
				{
					OFFSET 16.3773 0.0 0.0
					CHANNELS 6 Xposition Yposition Zposition Zrotation Xrotation Yrotation 
					JOINT Head
					{
						OFFSET 6.45672 0.0 0.0
						CHANNELS 6 Xposition Yposition Zposition Zrotation Xrotation Yrotation 
						End Site
						{
							OFFSET 0.0 0.0 0.0
						}
					}
				}
				JOINT Shoulder_L
				{
					OFFSET 12.9942 -0.242716 4.98039
					CHANNELS 6 Xposition Yposition Zposition Zrotation Xrotation Yrotation 
					JOINT UpperArm_L
					{
						OFFSET 5.34809 0.0 0.0
						CHANNELS 6 Xposition Yposition Zposition Zrotation Xrotation Yrotation 
						JOINT LowerArm_L
						{
							OFFSET 24.3286 1.87007e-05 0.0
							CHANNELS 6 Xposition Yposition Zposition Zrotation Xrotation Yrotation 
							JOINT Hand_L
							{
								OFFSET 22.2916 0.0 0.0
								CHANNELS 6 Xposition Yposition Zposition Zrotation Xrotation Yrotation 
								End Site
								{
									OFFSET 0.0 0.0 0.0
								}
							}
						}
					}
				}
				JOINT Shoulder_R
				{
					OFFSET 12.9945 -0.242716 -4.98039
					CHANNELS 6 Xposition Yposition Zposition Zrotation Xrotation Yrotation 
					JOINT UpperArm_R
					{
						OFFSET -5.34813 0.0 0.0
						CHANNELS 6 Xposition Yposition Zposition Zrotation Xrotation Yrotation 
						JOINT LowerArm_R
						{
							OFFSET -24.3289 0.000322201 0.0
							CHANNELS 6 Xposition Yposition Zposition Zrotation Xrotation Yrotation 
							JOINT Hand_R
							{
								OFFSET -22.2915 -0.000108084 0.0
								CHANNELS 6 Xposition Yposition Zposition Zrotation Xrotation Yrotation 
								End Site
								{
									OFFSET 0.0 0.0 0.0
								}
							}
						}
					}
				}
			}
		}
		JOINT UpperLeg_L
		{
			OFFSET -2.19248 -6.46944 0.0
			CHANNELS 6 Xposition Yposition Zposition Zrotation Xrotation Yrotation 
			JOINT LowerLeg_L
			{
				OFFSET 39.0811 0.0 -1.23785e-05
				CHANNELS 6 Xposition Yposition Zposition Zrotation Xrotation Yrotation 
				JOINT Foot_L
				{
					OFFSET 40.9854 0.0 -1.26872e-05
					CHANNELS 6 Xposition Yposition Zposition Zrotation Xrotation Yrotation 
					JOINT Toes_L
					{
						OFFSET 11.7543 0.0 0.0
						CHANNELS 6 Xposition Yposition Zposition Zrotation Xrotation Yrotation 
						End Site
						{
							OFFSET 0.0 0.0 0.0
						}
					}
				}
			}
		}
		JOINT UpperLeg_R
		{
			OFFSET -2.19251 6.46944 0.0
			CHANNELS 6 Xposition Yposition Zposition Zrotation Xrotation Yrotation 
			JOINT LowerLeg_R
			{
				OFFSET -39.0811 -0.00228153 -0.0401928
				CHANNELS 6 Xposition Yposition Zposition Zrotation Xrotation Yrotation 
				JOINT Foot_R
				{
					OFFSET -40.9854 0.0 0.0
					CHANNELS 6 Xposition Yposition Zposition Zrotation Xrotation Yrotation 
					JOINT Toes_R
					{
						OFFSET -11.7543 0.0 0.0
						CHANNELS 6 Xposition Yposition Zposition Zrotation Xrotation Yrotation 
						End Site
						{
							OFFSET 0.0 0.0 0.0
						}
					}
				}
			}
		}
	}
}
MOTION
Frames:	6
Frame Time:	0.0333333
0.000000 0.000000 0.000000 0.000000 0.000000 -0.000000 -0.053600 92.040500 0.466367 88.103300 -0.460948 6.875820 15.735700 0.000005 -0.000001 78.331700 86.035000 -77.626800 8.984550 -0.406207 -0.000000 0.010867 -1.651080 1.409120 16.377300 -0.000001 -0.000001 6.659610 -2.352510 -0.275328 6.456720 -0.000001 -0.000000 11.935700 -2.888430 -1.037540 12.994200 -0.242716 4.980390 -86.431900 -10.711600 -71.453900 5.348090 -0.000007 -0.000001 -84.684300 -24.478300 -98.393800 24.328600 0.000019 0.000005 15.328900 3.825160 -76.321600 22.291600 -0.000001 0.000005 23.055700 5.566170 -9.493910 12.994500 -0.242716 -4.980390 91.545800 -5.032410 -72.900100 -5.348130 -0.000001 -0.000004 -75.424800 -25.242400 -104.636000 -24.328900 0.000322 -0.000009 17.037200 6.255470 -70.427900 -22.291500 -0.000108 -0.000004 21.935700 5.404330 -3.078540 -2.192480 -6.469440 -0.000000 -175.205000 -8.499540 0.374856 39.081100 -0.000007 -0.000012 -0.116309 0.260277 24.078400 40.985400 -0.000006 -0.000013 0.368492 4.203030 -67.731300 11.754300 -0.000000 0.000003 -0.000050 -0.000570 -16.599700 -2.192510 6.469440 -0.000001 178.307000 14.655700 -176.684000 -39.081100 -0.002282 -0.040193 -0.057645 0.163726 20.423700 -40.985400 0.000008 0.000006 2.446350 7.293960 -66.995300 -11.754300 -0.000006 -0.000006 -0.007919 -0.087371 -20.130800
0.000000 0.000000 0.000000 0.000000 0.000000 -0.000000 -0.085211 92.052500 0.468867 88.117700 -0.461535 6.799220 15.735700 0.000005 -0.000001 78.700500 86.015100 -78.004900 8.984550 -0.406207 -0.000000 0.059736 -1.607950 1.391220 16.377300 -0.000001 -0.000001 6.519780 -2.285680 -0.316919 6.456720 -0.000001 -0.000000 11.736300 -2.789100 -1.018120 12.994200 -0.242716 4.980390 -86.460600 -10.490700 -71.236900 5.348090 -0.000007 -0.000001 -84.081200 -24.540700 -97.480500 24.328600 0.000019 0.000005 14.635900 3.450650 -77.021800 22.291600 -0.000001 0.000005 23.049300 5.565760 -9.472850 12.994500 -0.242716 -4.980390 91.514400 -4.845100 -72.619600 -5.348130 -0.000001 -0.000004 -74.048200 -25.646700 -103.660000 -24.328900 0.000322 -0.000009 16.691200 5.884660 -71.124900 -22.291500 -0.000108 -0.000004 22.059700 5.398090 -2.875610 -2.192480 -6.469440 -0.000000 -175.203000 -8.533320 0.352134 39.081100 -0.000007 -0.000012 -0.116256 0.261359 23.980300 40.985400 -0.000006 -0.000013 0.351429 4.241410 -67.683800 11.754300 -0.000000 0.000003 -0.000050 -0.000563 -16.599400 -2.192510 6.469440 -0.000001 178.329000 14.693300 -176.727000 -39.081100 -0.002282 -0.040193 -0.055713 0.159106 20.356500 -40.985400 0.000008 0.000006 2.523240 7.329000 -66.977200 -11.754300 -0.000006 -0.000006 -0.008016 -0.088166 -20.163300
0.000000 0.000000 0.000000 0.000000 0.000000 -0.000000 -0.124468 92.058300 0.464895 88.113700 -0.468643 6.697340 15.735700 0.000005 -0.000001 79.080100 85.987600 -78.388500 8.984550 -0.406207 -0.000000 0.123587 -1.565910 1.384010 16.377300 -0.000001 -0.000001 6.308180 -2.202860 -0.286977 6.456720 -0.000001 -0.000000 11.484300 -2.661330 -1.094700 12.994200 -0.242716 4.980390 -86.553000 -10.064800 -70.982400 5.348090 -0.000007 -0.000001 -82.752600 -24.640300 -95.375600 24.328600 0.000019 0.000005 13.469100 2.688870 -78.920300 22.291600 -0.000001 0.000005 22.845100 5.559780 -9.176640 12.994500 -0.242716 -4.980390 91.421100 -4.440700 -72.234000 -5.348130 -0.000001 -0.000004 -71.830500 -26.046000 -101.599000 -24.328900 0.000322 -0.000009 16.612900 5.266070 -72.903100 -22.291500 -0.000108 -0.000004 21.981900 5.381610 -2.348580 -2.192480 -6.469440 -0.000000 -175.217000 -8.439390 0.255466 39.081100 -0.000007 -0.000012 -0.115695 0.260478 23.949200 40.985400 -0.000006 -0.000013 0.300630 4.119180 -67.657300 11.754300 -0.000000 0.000003 -0.000047 -0.000535 -16.598400 -2.192510 6.469440 -0.000001 178.382000 14.746200 -176.822000 -39.081100 -0.002282 -0.040193 -0.054662 0.156520 20.327100 -40.985400 0.000008 0.000006 2.586830 7.363170 -66.968400 -11.754300 -0.000006 -0.000006 -0.008167 -0.089388 -20.213200
0.000000 0.000000 0.000000 0.000000 0.000000 -0.000000 -0.150752 92.063600 0.458651 88.098300 -0.457112 6.661620 15.735700 0.000005 -0.000001 79.179800 85.942300 -78.503100 8.984550 -0.406207 -0.000000 0.214938 -1.567630 1.355610 16.377300 -0.000001 -0.000001 6.118270 -2.208770 -0.162303 6.456720 -0.000001 -0.000000 11.145700 -2.488630 -1.208200 12.994200 -0.242716 4.980390 -86.706100 -9.471150 -70.722300 5.348090 -0.000007 -0.000001 -80.069500 -24.800400 -91.572200 24.328600 0.000019 0.000005 10.836300 1.510060 -82.169500 22.291600 -0.000001 0.000005 22.937700 5.557160 -9.048970 12.994500 -0.242716 -4.980390 91.240000 -3.793890 -71.884600 -5.348130 -0.000001 -0.000004 -68.684200 -26.307700 -98.021900 -24.328900 0.000322 -0.000009 16.169200 4.123840 -76.073700 -22.291500 -0.000108 -0.000004 21.464100 5.360530 -1.694610 -2.192480 -6.469440 -0.000000 -175.173000 -8.447270 0.220202 39.081100 -0.000007 -0.000012 -0.118780 0.267681 23.928700 40.985400 -0.000006 -0.000013 0.281616 4.164480 -67.634400 11.754300 -0.000000 0.000003 -0.000042 -0.000482 -16.596300 -2.192510 6.469440 -0.000001 178.436000 14.769700 -176.847000 -39.081100 -0.002282 -0.040193 -0.051267 0.147632 20.292200 -40.985400 0.000008 0.000006 2.671630 7.380190 -66.962300 -11.754300 -0.000006 -0.000006 -0.007770 -0.086143 -20.080700
0.000000 0.000000 0.000000 0.000000 0.000000 -0.000000 -0.195301 92.051800 0.464991 88.100100 -0.478314 6.669290 15.735700 0.000005 -0.000001 79.221500 85.875700 -78.568700 8.984550 -0.406207 -0.000000 0.346775 -1.584400 1.309490 16.377300 -0.000001 -0.000001 5.779630 -2.235900 -0.004846 6.456720 -0.000001 -0.000000 10.948700 -2.337130 -1.305600 12.994200 -0.242716 4.980390 -86.959300 -8.690570 -70.630300 5.348090 -0.000007 -0.000001 -75.868000 -24.946200 -85.907000 24.328600 0.000019 0.000005 7.292740 0.417357 -86.754000 22.291600 -0.000001 0.000005 22.723900 5.562990 -9.336170 12.994500 -0.242716 -4.980390 91.008500 -3.066200 -71.783000 -5.348130 -0.000001 -0.000004 -64.696200 -26.389300 -92.760800 -24.328900 0.000322 -0.000009 15.139500 2.542360 -80.693100 -22.291500 -0.000108 -0.000004 20.293400 5.342720 -1.158260 -2.192480 -6.469440 -0.000000 -175.153000 -8.450360 0.199995 39.081100 -0.000007 -0.000012 -0.117443 0.263797 23.998800 40.985400 -0.000006 -0.000013 0.255524 4.141980 -67.671600 11.754300 -0.000000 0.000003 -0.000046 -0.000531 -16.598200 -2.192510 6.469440 -0.000001 178.451000 14.758300 -176.881000 -39.081100 -0.002282 -0.040193 -0.054102 0.154472 20.391900 -40.985400 0.000008 0.000006 2.749300 7.361680 -67.032700 -11.754300 -0.000006 -0.000006 -0.008055 -0.088484 -20.176300
0.000000 0.000000 0.000000 0.000000 0.000000 -0.000000 -0.218886 92.048000 0.465253 88.074300 -0.488982 6.668610 15.735700 0.000005 -0.000001 79.760700 85.844100 -79.132900 8.984550 -0.406207 -0.000000 0.422261 -1.517270 1.260360 16.377300 -0.000001 -0.000001 5.475030 -2.280160 0.164268 6.456720 -0.000001 -0.000000 10.884300 -2.375390 -1.304510 12.994200 -0.242716 4.980390 -87.333500 -7.744430 -70.934600 5.348090 -0.000007 -0.000001 -70.400500 -24.428600 -78.565300 24.328600 0.000019 0.000005 4.787870 -0.167911 -92.019700 22.291600 -0.000001 0.000005 22.121500 5.572730 -9.831880 12.994500 -0.242716 -4.980390 90.703000 -2.124380 -71.684100 -5.348130 -0.000001 -0.000004 -59.750400 -25.654300 -85.907300 -24.328900 0.000322 -0.000009 14.090900 0.976205 -86.121500 -22.291500 -0.000108 -0.000004 19.108200 5.335430 -0.944055 -2.192480 -6.469440 -0.000000 -175.098000 -8.493210 0.176423 39.081100 -0.000007 -0.000012 -0.118357 0.265293 24.043600 40.985400 -0.000006 -0.000013 0.243128 4.174910 -67.688400 11.754300 -0.000000 0.000003 -0.000054 -0.000600 -16.600800 -2.192510 6.469440 -0.000001 178.489000 14.775000 -176.881000 -39.081100 -0.002282 -0.040193 -0.055549 0.158493 20.376700 -40.985400 0.000008 0.000006 2.646460 7.403860 -67.003500 -11.754300 -0.000006 -0.000006 -0.007827 -0.086615 -20.099900
